<?xml version="1.0" encoding="utf-8"?>
<!-- Generator: Adobe Illustrator 28.0.0, SVG Export Plug-In . SVG Version: 6.00 Build 0)  -->
<svg version="1.1" id="Capa_1" xmlns="http://www.w3.org/2000/svg" xmlns:xlink="http://www.w3.org/1999/xlink" x="0px" y="0px"
	 viewBox="0 0 525.4 377.7" style="enable-background:new 0 0 525.4 377.7;" xml:space="preserve">
<style type="text/css">
	.st0{fill:#06002A;}
	.st1{fill:#2D2D2D;}
	.st2{fill:#F5F5F5;}
	.st3{fill:#1E1E1E;}
	.st4{fill:#E2E2E2;}
	.st5{fill:#EDEDED;}
	.st6{fill:#2C2C2C;}
	.st7{fill:#030303;}
	.st8{fill:#010101;}
	.st9{fill:#F1F1F1;}
	.st10{fill:#F4F4F4;}
</style>
<g>
	<path class="st0" d="M525.2,371.7c-1.4-8.1-5.2-15.3-7.9-22.9c-2.8-7.9-5.5-15.9-7-24.3c-2.3-13.7-2.8-28-8.5-40.8
		c-5.2-11.7-7.6-23.8-8.5-36.4c-0.2-3.2-2.9-7.5,3-8.9c1-0.2,0.5-1.9,0.3-2.9c-0.4-2.3-0.8-4.5-1.3-6.8c-0.6-2.3-0.5-3.7,2.3-4.7
		c3.6-1.4,5.1-4.8,6.2-8.6c1.6-5.6-0.4-10.8-0.8-16.1c-0.7-7.6,1.1-15.2,0.8-22.7c-1.3-28.6-3.2-57.1-5-85.7c-0.2-2.7-0.9-5.3-3.2-7
		c-6.3-4.4-9.3-10.8-10.8-18C482.1,54,478,42.4,473.3,31c-3.1-7.4-13.1-14.3-19.4-13.4c-8.5,1.3-12.5,7.7-15.3,15.1
		c-0.8,2.1-1.7,4.4-1.8,6.6c-0.4,9-4.6,17.5-2.5,27c0.7,3.2,0.6,8.2-2.8,10.6c-5.4,3.8-8.2,9-9.6,15.2c-5,21.6-12.3,42.3-21.4,62.4
		c-4.6,10.2-12,17.6-20.8,23.9c-4.5,3.3-7.2,7.5-8.5,12.5c0,1.4,0,2.7,0,4.1c2-0.2,1.8-2.7,3.3-3.1c0.7,1.5-0.2,2.5-0.4,3.7
		c-0.1,1.3,0.8,2.6,1.5,1.5c1.4-2.3,3.8-1.4,5.3-1.7c4.6-1,4.7-5.4,7.2-7.8c6-5.6,11.8-11.6,17.6-17.5c12.3-12.7,24.4-25.5,26-44.7
		h0c0.8,6.4,2.2,12.4-1.6,18.8c-14.7,24.9-28.8,50.1-41.2,76.2c-1.6,3.4-1,4.5,2,5.9c4.1,1.9,8.2,4,12.8,4.6
		c5.2,0.7,10.4,1.5,15.6,2.3c2.3,0.4,4.3,1,4.9,3.9c3.2,14.1,7.4,28,7,42.7c-0.3,9.6,1,19,2.9,28.4c2.1,10.7,5.5,21.2,5.9,32.2
		c0.3,8.2-1,16.2-2.1,24.2c-0.6,4.7,2.7,8.6,7.5,8.9c5.5,0.3,9.5-3.1,8.8-8.4c-1-7.9-0.4-15.9-0.4-23.8c0-2.9-0.2-5.9-2.5-7.8
		c-2.3-2-2.4-4.3-2.4-7.1c0.3-14.5,2.5-29,0.8-43.4c-1.7-14,1.7-27.8-0.4-41.7c-0.2-1.1-0.3-2.4,1.2-3.1c3.7-1.7,15,2.2,16.3,6
		c4.1,12,9.6,23.7,13.2,35.6c5.2,17.4,12.9,33.5,20.7,49.7c1.5,3.1,2.5,6.2,2,9.7c-0.7,5.4,0.5,10.5,2.3,15.5
		c1.6,4.3,3.1,8.6,3.7,13.2c1,8,3,9.5,11,9.7C524.3,377.8,526,376.1,525.2,371.7L525.2,371.7L525.2,371.7z"/>
	<path class="st0" d="M370.4,195c0.2-1.4,0.5-2.8,0.8-4.1c0-1,0.1-2,0.2-3c0.7-7.1-0.1-14.1-4.1-21.3c-3.1-5.7-8.5-11.2-8-19.4
		c0.2-3.1-0.2-5.6,1.6-8.2c5.6-8,11.1-16,16.5-24.1c3.4-5.1,4.1-9.9,0.7-15.9c-4-7.1-10.9-12.3-12.6-20.9c-1.8-9.2-8-14.5-16.8-16.8
		c-11.8-3.1-15.5-13.1-7.7-22.7c0.4,0.8,0.8,1.6,1.2,2.4c0.9-1.3-0.3-3.1,1.1-4.2c1.2,0.8-0.4,2.8,1.1,3c4.2-8.4,1-16.5-0.6-24.6
		c-2.8-14.2-12.9-19-25.6-12.7c-0.7,0.3-1.3,0.7-2,1c-7.8,3-9,5.2-8.5,13.7c0.4,8.2,4.5,15.6,4.7,23.8c1.8,0.6,1.2-3,2.6-1.6
		c1.8,1.8,4.1,3.7,4.3,6.6c0.2,2.3-1.3,3.8-3.3,4.9c-3.7,1.9-7.4,3.7-11.6,4.6c-5.8,1.2-11.5,3.3-13.8,9.7
		c-3.4,9.6-6.3,19.2-7.3,29.4c-0.7,7.4-1.5,14.9-3.8,22c-2.5,8-2.1,15.9,0.3,23.7c1.6,5.1,3.1,10.3,5.5,15c5.2,10,6.4,19.4-1.5,28.5
		c-0.8,1-2,2.3-0.3,3.9c5.9,5.6,9.4,13.4,16.3,18.2c2.7,1.9,3.2,4.6,3.7,7.8c3.3,23.5-1.7,46.8-1.8,70.3c0,1.2-0.8,2.5-1.4,3.7
		c-9.4,20.3-22.2,37.7-41.2,50c-1,0.6-1.8,1.4-2.7,2.1c-5.6,4.5-5.9,7.3-1.5,13c1.1,1.5,2.6,2.9,4.2,3.8c4.4,2.5,7.5,5.3,3,11
		c5.7,0,10.4,2.1,14.8,2.8c3.4,0.6,5.5,2.2,8.1,3.4c1,0.5,1.8-0.1,2.6-0.7c8-5.2,18.6-8.6,14.9-21.9c-0.2-0.7,0.1-1.5,0.1-2.3
		c-0.1-2.2,1.1-3,3-3.4c2-0.4,3.1,0.5,4,2.3c1.3,2.7,0.9,5.6,1.4,8.4c0.3,1.5,0,3,2.1,3.5c7.9,1.7,15.6,3,22.4-3.6
		c5.4-5.2,23.6-5.5,29-0.4c4.1,3.9,8.8,5.1,14,5.1c2.3,0,6.5,1.7,4.8-3.9c-0.4-1.3,1.1-1.9,2.1-2.2c7.1-1.9,13.5-7.3,21.7-4.2l0,0
		c0.3-2.8-1.7-5.2-0.1-7.6c2.1-3.2,1.4-6.5,0.5-9.8c-3.8-14.2-7.2-28.5-11.5-42.6c-6.1-19.8-9.4-40.6-20.7-58.6
		c-1.2-1.9-2-4.4-1.8-6.6c0.9-10.3-2.2-20.3-2.6-30.5C371,195,370.7,195,370.4,195L370.4,195L370.4,195z M348.1,89.6
		c-0.5,1.1-1.3,2-2.7,2l0,0c-0.8-0.9-0.5-2-0.5-3c0-1.1-0.6-2.5,0.6-3.3c0.6-0.4,1.5-0.2,2,0.5C348.4,86.9,348.8,88.2,348.1,89.6
		L348.1,89.6L348.1,89.6z"/>
	<path class="st0" d="M371.2,190.9c-0.4,1.3-0.6,2.7-0.8,4.1c0.3,0,0.6,0,0.8,0C371.2,193.6,371.1,192.2,371.2,190.9L371.2,190.9
		L371.2,190.9z"/>
</g>
<path class="st0" d="M40.8,54.5c-0.7-4.6-3.6-8.6-3.4-13.4c0-0.9-0.6-1.2-1.3-1.6c-4.1-2.4-4.3-6.7-3.3-10.2c0.9-3,0.5-5.3-0.4-7.8
	C30.5,16,31.8,11,34.2,6c0.6-1.2,1.3-2.4,2.5-2.6c4-0.6,7.8-2.5,11.7-2.8c13.9-1.1,22.5,9.3,19.6,23c-0.7,3.3,1.8,6.2,0.9,9.6
	c-0.4,1.3,0.4,3.1-0.8,4c-4,3.1-2.8,7.8-4,11.8c-0.7,6.1-5,9.9-9,13.9c-1.7,1.7-3.7,1.8-5.9,0.6c-3.4-1.9-6.4-4.3-8.5-7.5
	C40.4,55.4,40.5,54.9,40.8,54.5L40.8,54.5L40.8,54.5z"/>
<path class="st0" d="M177.5,47c-1.1-2.6-2.4-5-2.2-8c0.1-0.9-0.1-1.5-0.9-2.3c-3.2-3.4-5-7.3-1.8-11.9c0.5-0.7,0.3-2.1,0-3.1
	c-1.7-7.4-1-13.2,6.7-17.7c7.7-4.5,13.8-5.7,21.4-1.1c2.3,1.4,4.4,3.1,5.3,5.7c2.6,7.7,2.5,16,2.1,23.8c-0.2,3.9-3.4,8.6-5,13.1
	c-0.6,1.5-1,2.9-0.5,4.4c1.2,2.5-0.7,3.7-2.1,5c-5.6,5.2-16,4.6-21.5-0.7C176.6,51.9,178.7,49.2,177.5,47L177.5,47L177.5,47
	L177.5,47z"/>
<path class="st1" d="M206.4,52.6c-0.5,4.5,2.3,8,4.4,11.1c4.2,6.2,2.9,11.5,0.3,17.6c-6.6,15.2-12.8,30.5-19.2,45.7
	c-0.1,0.1-0.1,0.3-0.2,0.4c-0.9,1.4-1,3.9-2.7,4c-1.9,0.1-1.9-2.5-2.4-3.9c-7.2-17.9-14.2-35.9-21.4-53.8c-0.7-1.7-0.4-2.8,0.5-4.3
	c2.5-4.1,4.7-8.3,7.3-12.4c1-1.5,1.1-3.2,1.6-4.7c0.3-0.5,0.7-0.9,1-1.4c2.3-1.3,2.1,0.7,2.5,1.9c1.2,3.5,0.2,7.2,1.1,10.6
	c2.9,10.9,4.9,22,6.4,33.3c0.2,1.7,0.5,3.4,0.3,5.1c0,0.1-0.3,0.7,0.3,0.5c0.1,0,0.1-0.6,0.3-0.8c3.2,0,2.3,2.6,2.4,4.2
	c0.4,4.9-1.3,9.9,0.2,14.8c0,0.1,0.1,0.2,0.1,0.3c2.4-4.4,0.9-9.5,2.4-14.1c2.2-8.3,3.3-16.9,5-25.3c0.9-4.2,1.6-8.4,3.5-12.4
	c2-4.2,1.2-9.1,2.1-13.7c0.3-1.6-0.2-3.8,2.2-4.3C205,51.5,205.7,52,206.4,52.6L206.4,52.6L206.4,52.6z"/>
<path class="st2" d="M204.4,50.9c-1,0.6-0.8,1.6-0.9,2.5c-1.4,18.1-8.1,35.1-10.4,53c0,0.2-0.1,0.4-0.2,0.4c-0.2,0.1-0.5,0-0.7,0
	c-1.3-1.2-1.3-2.8-1.2-4.3c0.1-7.9-0.6-15.8,0.6-23.7c0.8-5.3-0.9-10.3-2-15.4c-0.5,4.2-1.6,8.3-1.6,12.5c0,6.5,0,13,0,19.5
	c0,2,0.3,4.1-1.1,5.8c-0.1,1.7-0.2,3.3-0.3,5l-0.7,0.1c-1.2-7.4-2.7-14.8-3.6-22.2c-1.4-10.5-6-20.5-5.1-31.4c0.1-1-0.3-1.8-1.6-1.7
	c0.9-1.2,2.2-2.2,1.9-4c2,7.2,4.9,9.8,11.6,10.3c6.3,0.5,11.1-2.1,13.4-7.3C203.4,50,204.1,50.1,204.4,50.9L204.4,50.9L204.4,50.9
	L204.4,50.9z"/>
<path class="st1" d="M69.9,56.3c2.3,2.1,1.8,5.8,4.7,7.8c1.5,1,0.7,3.1,0.1,4.8c-4.1,11.7-8.2,23.3-12.3,35
	c-2.3,6.6-4.5,13.2-6.7,19.7c-0.6,0.3-1,0.2-1.4-0.4c-1.2-5.4,0.7-10.7,1.4-16c0.9-7.5,1.8-15,2.8-22.5c1.1-4.4,1.3-8.9,1.9-13.3
	c0.8-4.5,0.8-9.1,1.4-13.6c0.3-2.2,0.7-4.2,2.4-5.8C66.1,53.4,68,54.9,69.9,56.3L69.9,56.3L69.9,56.3z"/>
<path class="st3" d="M54.9,123.6c0.3,0,0.5,0,0.8-0.1c-0.2,1.9-0.8,3.8-2.3,0.8c-2.2-4.4-3.9-9-5.8-13.5c-5.5-13-11-26-16.7-38.9
	c-1-2.2-1.5-3.9,0.7-5.7c2.1-1.7-1.5-2-1.1-3.3c4.3-1.7,7-5.4,10.3-8.4c0,0.4,0,0.7,0.1,1.1c3,4.2,2.4,9.3,3.7,13.9
	c1.2,5.9,1.3,11.9,3.5,17.6c1.1,8.4,2.5,16.7,4.7,24.8C53.8,115.8,53.2,119.9,54.9,123.6L54.9,123.6
	C54.9,123.6,54.9,123.6,54.9,123.6z"/>
<path class="st4" d="M43.6,69.6c-1.6-4.5-1.7-9.4-2.7-14c2.9,2.3,5.4,4.9,8.6,6.8c1.5,0.8,2.8,1.5,4.1,0.1c4-4.1,8.4-8,10.5-13.6
	c0,1,0.1,2,0.1,3.1c-0.9,6.5-1.8,13.1-2.7,19.6c-1.7-0.7-3.3-1.6-4.9-2.4c-2.8-2.8-5.4-3.4-7.8,0.4C47,70.3,45.3,71.3,43.6,69.6
	L43.6,69.6L43.6,69.6z"/>
<g>
	<path class="st0" d="M206.4,52.6L206.4,52.6C206.4,52.6,206.4,52.6,206.4,52.6L206.4,52.6L206.4,52.6z"/>
	<polygon class="st0" points="206.5,52.6 206.5,52.6 206.5,52.6 	"/>
	<path class="st0" d="M188.5,202.9c0.1,3.1,0.2,6.2,0.3,9.3c0.6,48.2-2.3,96.4,3.5,144.5c0.4,2.9,4.1,5.5,6.2,3.6
		c3.5-3,3.9,0.7,5.1,2c0.8,0.9,0.8,2.6,2.3,3.3c5,2.3,10.1,4,15.7,2.9c4.9-1,5.4-2.2,2-5.9c-4.2-4.7-8.7-9.2-12.3-14.5
		c-0.6-0.9-1.4-1.4-1.3-3.1c1.1-14.1,1.5-28.2,2.6-42.3c1.4-17.6-1.6-35.4,2.1-52.9c1.2-5.9,1.8-11.9,2.8-17.9
		c2.3-13.4,4-27,7.3-40.3c0.4-1.4,0.1-3.4,2.1-3.7c6.4-0.9,8.4-5.9,8.9-10.9c1.6-15.5,9.1-30,6.8-46.4c-0.9-6.6-0.9-13.8-0.8-20.7
		c0.1-13.1-2.6-25.9-4.9-38.7c-0.8-4.8-3.1-8.4-8.3-10.1c-7.4-2.5-14.7-5.5-22-8.4c-2.6,0.6-1.1,2.3-0.6,3.3
		c1.4,3.1,2.5,6.4,4.4,9.2c3.2,4.7,2.8,9.2,0.6,14.1c-5.6,12.6-10.8,25.4-16.3,38.1c-1.7,3.9-2.9,8.1-5.1,11.8
		c-1.8-0.8-1.9-2.3-2.3-3.6c-5-13.2-9.7-26.6-15.6-39.3c-4.9-10.3-5.8-19.1,2.1-28c1.4-1.5,2.5-3.7,1.1-6
		c-6.9,4.4-14.1,8.4-21.9,10.9c-5.8,1.9-9.3,5.3-8.7,11.9c0.1,0.8-0.3,1.8-0.6,2.6c-2.2,5-3.2,10.3-4.1,15.7
		c-1.3,7.6-1.5,15.5-3.7,22.9c-4,13.9-2.9,28,0.8,41.6c1.6,5.8,3.1,11.6,3.9,17.5c0.3,2.7,1.2,4.7,4.1,5.4c3.2,0.8,4.4,3,4.1,6.2
		c-0.4,4.3-0.6,8.7-0.7,13c-0.2,19.4-1.9,38.7-1.6,58.1c0.2,15.1-2.6,30.2-2.6,45.5c0,14.1-1.4,28.1-3.2,42.1
		c-0.9,6.7-3.8,9.6-8.6,12.4c-3.3,1.9-6.6,4-9.8,6.1c-1.3,0.8-1.9,1.9-1.6,3.5c0.3,1.8,1.6,2.2,2.9,2.4c8,1,15.9,1.8,23-3.9
		c2.3-1.8,5.2-3.6,8.9-1.5c3,1.8,7.2,0,7.5-2.4c0.7-5.9,1.7-11.7,3.5-17.5c3.1-9.7,2.2-20,2.9-30c1.1-16,0.6-32.2,4.6-48
		c5.5-21.5,10.1-43.2,13.3-65.1c0.5-0.5,0.6-1.3,0.8-1.9 M156.8,146.3c-6.2-11.9-1-23.1,1.3-34.5
		C159.6,123.3,158.9,134.8,156.8,146.3z M221.6,146c-1.5-11.3-2.6-22.3-0.4-33.4C223.8,123.5,226.9,134.6,221.6,146z"/>
</g>
<path class="st5" d="M218,98.3h-10.6c2.1-1.4,3.3-2.2,4.5-2.9C215,93.4,217,94.4,218,98.3z"/>
<path class="st0" d="M97.9,180.5c5-0.4,4.2-4.1,5.1-6.5c2.1-5.8,3.6-11.8,5.5-17.8c3.5-11.2,6.2-22.7,4.6-34.3
	c-2.8-19.3-8.2-38.1-14.3-56.7c-0.9-2.7-2.3-4-5.1-4.5c-7.9-1.3-15.8-2.8-23.7-4.3h0c-0.1-0.1-0.3-0.2-0.4-0.2c-0.1,0-0.3,0-0.4,0.1
	c-0.9,1.3,0.5,1.8,0.9,2.7c1.4,3.9,4.9,6.9,2.8,12.1c-6.6,16.9-12.1,34.2-18,51.3c-0.1,0.2-0.1,0.3-0.2,0.4
	c-0.1,0.1-0.3,0.2-0.4,0.2c-2.3-1.7-2.2-4.6-3.2-7c-6.2-14.4-12.1-28.9-18.5-43.2c-0.8-1.9-1.7-3.7-0.1-5.7c2.2-2.7,0.2-3.5-1.9-4.3
	c-4.5,1.7-8.9,3.4-13.4,5.1c-2.9,1-4.5,3-5.2,6c-1.3,5.3-2.8,10.5-4.1,15.7c-3.7,14.7-7.5,29.5-7.8,44.8
	c-0.4,18.6,7.8,35.2,13.5,52.4c0.2,0.7,0.8,1.6,1.3,1.7c6,0.7,7,5,7.6,9.9c0.7,6,1.5,12,2.2,18c1.8,16.2,5.6,32.2,5.3,48.5
	c-0.5,22.8,6.8,44.3,10.3,66.4c0.4,2.3,0.4,4-0.8,5.9c-2.6,4-5.4,8-7.5,12.3c-1.5,3.1-2.3,6.9,0.5,9.6c2.9,2.9,6.5,1.6,10,0.5
	c8.2-2.7,8.7-12.1,14.8-16.6c0.4-0.3,0.1-1.5,0.3-2.2c1.2-5.8,0.1-11.7,0.3-17.6c0.4-9-4-17.2-3.2-26.4c1-11.4,0.4-23-2.8-34.2
	c-0.2-0.6-0.3-1.2-0.3-1.8c1.2-14.8,2.2-29.7,3.6-44.5c0.5-5.1,0.6-10.4,2.6-15.7c1.8,2.1,2.2,4.4,2.7,6.6c3,13,7.3,25.6,10.7,38.5
	c2.6,9.8,4.8,19.8,3.8,30.2c-1.1,10.8-1.3,21.8,1,32.4c2.4,10.7,2.2,21.4,1.2,32.1c-0.6,6.2-2.3,12.4,5.4,15.5
	c0.8,0.3,0.9,1.2,1.1,1.9c2.6,9.4,6.8,12.7,16.2,12.8c5.2,0,6.7-1.7,6.2-6.8c-0.2-2.2-1.1-4.2-2.3-6c-2-3.3-4.1-6.6-5.9-10
	c-1.2-2.3-2.7-4.9-1.8-7.5c2.4-7,1.9-14,1.8-21.2c-0.4-15.7,0.6-31.4-0.8-47c-2.4-27.9-2.3-55.8-3.3-83.8
	C93.5,184.7,95.9,180.6,97.9,180.5L97.9,180.5z M23.2,158.9L23.2,158.9c-4.6-11.7-6-23.5-2.1-35.6c1.3-4.2,3-8.4,2.8-13
	C29.1,126.6,28.4,142.8,23.2,158.9z M92.2,143.4c-0.8-10.1-1.6-20.3-2.4-31.1C94.8,119.7,96,137.9,92.2,143.4z"/>
<path class="st6" d="M81.1,92.8c1.6,0.1,3.1-0.3,3.3,1.5c0.3,2-1.1,2.2-2.6,2.3c-3.3,0.3-6.7,0.8-10,1.3c-1.2,0.2-2.6,1-2.9-0.9
	c-0.3-1.8,0.7-3,2.5-3.1C74.8,93.7,78.2,93.8,81.1,92.8C81.1,92.8,81.1,92.8,81.1,92.8z"/>
<path class="st7" d="M186.9,101.2c-0.1-9.5-0.2-18.9-0.3-28.4c0-3.1,2.6-6,0.4-9.4c-0.5-0.8,1.4-3,3-2.9c1,0.1,2.5,1.4,2.4,3
	c-0.3,7.9,0.9,15.8,0.2,23.8c-0.5,6.5-0.3,13-0.4,19.6c0.3,5.5-0.6,10.8-1.8,16.1c-0.2,0.7-0.2,1.5-1.5,1.9
	c-0.9-4.6-2.7-8.7-1.5-13.7C188.2,108,188.4,104.4,186.9,101.2L186.9,101.2L186.9,101.2z"/>
<path class="st8" d="M48.3,69.5C48,67,50,65.5,51.5,65.2c2.2-0.4,4.2,1.1,5.2,3.4c-0.6,5.5,3.3,10.3,2.7,15.8
	c-0.3,11.7-2.6,23.1-4.2,34.6c-0.2,1.5-0.3,3.1-0.4,4.6c-3.7-4.7-2.8-10.7-4.5-16.1c-1.6-4.9-2-10.2-3.3-15.2
	c-0.5-2,1.1-3.6,0.3-5.3c-1.4-2.3-0.9-4.8-0.2-7.1C48.1,76.5,48.6,73.1,48.3,69.5L48.3,69.5L48.3,69.5z"/>
<path class="st9" d="M59.5,84.4c-0.8-2.3-1.3-4.7-2.5-6.8c-1.8-3.1-1.7-6-0.2-9.1c1.8,0.6,4.2,0.4,4.7,3
	C61.1,75.9,61.4,80.4,59.5,84.4L59.5,84.4L59.5,84.4z"/>
<path class="st10" d="M48.3,69.5c2.1,2.3,2.1,4.8,0.9,7.6c-1.4,3.1-2.1,6.4-1.9,9.9c-2-0.4-1.5-2.1-1.7-3.3c-0.7-4.7-1.4-9.4-2-14.1
	C45.2,70,46.7,68.6,48.3,69.5L48.3,69.5z"/>
</svg>
